<svg xmlns="http://www.w3.org/2000/svg" width="138.932" height="64.427" viewBox="0 0 138.932 64.427">
    <g data-name="Group 3353">
        <g data-name="svgexport-21 (7)">
            <path data-name="Path 6457" d="M16.8.488a1.668 1.668 0 0 0-2.383.025L10.878 4.2 2.234 1.343.419 3.158l7.206 4.437-3.646 3.8-2.339-.385L0 12.651l3.438 1.2 1.2 3.438 1.64-1.64-.378-2.335 3.8-3.646 4.437 7.206 1.815-1.815-2.864-8.645 3.691-3.542A1.668 1.668 0 0 0 16.8.488z" transform="rotate(18.01 12.769 202.972)" style="fill:#17b5b6"/>
        </g>
        <g data-name="svgexport-17 (32)" style="opacity:.38">
            <path data-name="Path 6456" d="M65.56 15.725a.541.541 0 0 0-.65.344 49.516 49.516 0 0 1-9.51 17.977 57.405 57.405 0 0 1-19.406 14.8c-9.811 4.717-22.867 7.243-22.836 7.381a80.412 80.412 0 0 0 23.3-6.516 63.4 63.4 0 0 0 12.191-7.636 50.638 50.638 0 0 0 17.3-25.765.873.873 0 0 0-.378-.587z" transform="scale(-1) rotate(67 16.294 -111.012)" style="fill:#17b5b6"/>
        </g>
        <g data-name="svgexport-17 (32)" style="opacity:.38">
            <path data-name="Path 6456" d="M56.326 14.269a.481.481 0 0 1-.053.189.488.488 0 0 1-.119.148.5.5 0 0 1-.168.093.513.513 0 0 1-.2.023q-2.925-.24-5.679-.194c-1.837.027-3.62.143-5.351.337s-3.412.468-5.045.81-3.219.754-4.762 1.225a50.633 50.633 0 0 0-6.278 2.386 53.456 53.456 0 0 0-5.546 2.946 56.564 56.564 0 0 0-4.8 3.271 58.581 58.581 0 0 0-4.036 3.36 64.064 64.064 0 0 0-5.454 5.7c-1.689 1.977-3.222 3.957-4.52 5.715s-2.359 3.3-3.1 4.389S.04 46.41.008 46.392a11.941 11.941 0 0 1 .925-1.841c.632-1.136 1.567-2.719 2.767-4.532s2.65-3.853 4.311-5.9a54.774 54.774 0 0 1 5.555-5.958q1.1-1.008 2.353-2.036t2.656-2.052q1.407-1.023 2.98-2.029t3.327-1.969a52.469 52.469 0 0 1 13.555-5.156 54.668 54.668 0 0 1 8.232-1.233 59.238 59.238 0 0 1 9.184.052.291.291 0 0 1 .131.07 1.266 1.266 0 0 1 .158.152 1.252 1.252 0 0 1 .131.175.278.278 0 0 1 .051.137z" style="fill:#17b5b6" transform="translate(0 2)"/>
        </g>
    </g>
</svg>
