<svg data-name="svgexport-17 (33)" xmlns="http://www.w3.org/2000/svg" width="18.145" height="18.145" viewBox="0 0 18.145 18.145">
    <path data-name="Path 6699" d="M209.784 203.919a5.883 5.883 0 0 0-3.226-5.239 8 8 0 0 1-7.877 7.877 5.867 5.867 0 0 0 8.223 2.411l2.855.79-.79-2.855a5.844 5.844 0 0 0 .815-2.984zm0 0" transform="translate(-191.639 -191.639)" style="fill:#007f81"/>
    <path data-name="Path 6700" d="M13.856 6.928A6.928 6.928 0 1 0 .961 10.45l-.936 3.381 3.382-.931a6.93 6.93 0 0 0 10.45-5.968zM5.865 5.316H4.8a2.126 2.126 0 1 1 3.563 1.569l-.9.827v.829H6.4v-1.3L7.645 6.1a1.052 1.052 0 0 0 .346-.785 1.063 1.063 0 1 0-2.126 0zM6.4 9.6h1.06v1.063H6.4zm0 0" style="fill:#007f81"/>
</svg>
