<svg xmlns="http://www.w3.org/2000/svg" width="16.722" height="13.617" viewBox="0 0 16.722 13.617">
    <g data-name="svgexport-21 (11)" transform="translate(-1 -4.57)">
        <path data-name="Path 6722" d="M6.813 10.941a3.185 3.185 0 1 0-3.185-3.185 3.185 3.185 0 0 0 3.185 3.185zm4.167 2.631A5.816 5.816 0 0 0 1 17.629a.557.557 0 0 0 .557.557H12.07a.557.557 0 0 0 .557-.557 5.611 5.611 0 0 0-.27-1.741 5.774 5.774 0 0 0-1.377-2.316z"/>
        <circle data-name="Ellipse 78" cx="2.369" cy="2.369" r="2.369" transform="translate(11.172 6.482)"/>
        <path data-name="Path 6723" d="M13.541 11.872a4.17 4.17 0 0 0-2.121.589c.121.108.243.215.357.332a6.9 6.9 0 0 1 1.649 2.768 6.4 6.4 0 0 1 .244 1.049h3.5a.557.557 0 0 0 .556-.558 4.185 4.185 0 0 0-4.18-4.18z"/>
    </g>
</svg>
