<svg xmlns="http://www.w3.org/2000/svg" width="9.316" height="13.309" viewBox="0 0 9.316 13.309">
    <g data-name="svgexport-17 (36)">
        <path data-name="Path 6460" d="M71.652 2h-1V1a1 1 0 0 0-1-1h-2a1 1 0 0 0-1 1v1h-1A1.665 1.665 0 0 0 64 3.66v2a1 1 0 0 0 1 1h1.664v-.338a.333.333 0 0 1 .666 0v.333h2.662v-.333a.333.333 0 1 1 .665 0v.333h1.664a1 1 0 0 0 1-1v-2A1.665 1.665 0 0 0 71.652 2zm-1.663 0h-2.662V1a.333.333 0 0 1 .333-.335h2a.333.333 0 0 1 .329.335zm.665 5.323v1a.333.333 0 0 1-.665 0v-1h-2.662v1a.333.333 0 0 1-.666 0v-1H65a1.647 1.647 0 0 1-1-.341v4.666a1.665 1.665 0 0 0 1.664 1.664h5.989a1.665 1.665 0 0 0 1.664-1.664V6.979a1.647 1.647 0 0 1-1 .341zm0 0" transform="translate(-64)" style="fill:#17b5b6"/>
    </g>
</svg>
