<svg xmlns="http://www.w3.org/2000/svg" width="16.711" height="13.432" viewBox="0 0 16.711 13.432">
    <g data-name="svgexport-17 - 2023-11-21T103743.276">
        <path data-name="Path 6724" d="M1.741 4.741h1.74a.336.336 0 0 1-.274-.152.437.437 0 0 1-.063-.339l.217-.982a1.077 1.077 0 0 1 1.013-.9h2.241a1.123 1.123 0 0 1 1.044 1.185v.79a.374.374 0 0 1-.348.4H9.4a.374.374 0 0 1-.348-.4v-.79A1.123 1.123 0 0 1 10.1 2.37h2.241a1.077 1.077 0 0 1 1.013.9l.217.982a.435.435 0 0 1-.063.339.336.336 0 0 1-.274.152h1.736a.374.374 0 0 0 .348-.4v-2.37a1.872 1.872 0 0 0-1.741-1.975H3.133a1.872 1.872 0 0 0-1.741 1.975v2.37a.374.374 0 0 0 .349.398zm13.229.79H1.741A1.872 1.872 0 0 0 0 7.506v5.527a.374.374 0 0 0 .348.4.374.374 0 0 0 .352-.4v-1.181h15.315v1.181a.351.351 0 1 0 .7 0V7.506a1.872 1.872 0 0 0-1.745-1.973zm1.044 5.531H.7v-.79h15.315v.79z"/>
    </g>
</svg>
