<svg data-name="svgexport-18 (3)" xmlns="http://www.w3.org/2000/svg" width="12" height="12" viewBox="0 0 12 12">
    <g data-name="Layer 2">
        <path data-name="Path 6671" d="M14 5.429V4.143a1.286 1.286 0 0 0-1.286-1.286H11v-.428a.429.429 0 1 0-.857 0v.429H5.857v-.429a.429.429 0 1 0-.857 0v.429H3.286A1.286 1.286 0 0 0 2 4.143v1.286zM2 6.286v6.429A1.286 1.286 0 0 0 3.286 14h9.429A1.286 1.286 0 0 0 14 12.714V6.286zm8.421 2.468-3 2.571a.429.429 0 0 1-.581-.025l-1.286-1.283a.429.429 0 1 1 .606-.606l1.005 1.005L9.866 8.1a.429.429 0 1 1 .557.651z" transform="translate(-2 -2)" style="fill:#fff"/>
    </g>
</svg>
