<svg data-name="svgexport-17 (74)" xmlns="http://www.w3.org/2000/svg" width="17.508" height="17.508" viewBox="0 0 17.508 17.508">
    <path data-name="Path 6666" d="M69.847 63.26a6.587 6.587 0 1 0 4.653 1.929 6.543 6.543 0 0 0-4.657-1.929zm-.048.253-1.023 4.211-2.746-1.695 1.694 2.745-4.211 1.026a6.341 6.341 0 0 1 6.287-6.287zm-1.707 5.172-.956-1.549 1.55.956-.116.476zm0 2.322.476.116.116.478-1.549.956zm-4.579-1.113 4.21 1.023-1.695 2.746 2.745-1.694L69.8 76.18a6.341 6.341 0 0 1-6.284-6.286zm4.841-.048a1.493 1.493 0 1 1 1.493 1.493 1.493 1.493 0 0 1-1.494-1.492zm3.246-1.16-.476-.116-.116-.478 1.549-.956zm0 2.322.956 1.549-1.55-.956.116-.476zm-1.707 5.172 1.023-4.211 2.746 1.695-1.694-2.745 4.211-1.023a6.341 6.341 0 0 1-6.286 6.284zm2.075-7.4 1.695-2.746-2.745 1.694-1.023-4.21A6.341 6.341 0 0 1 76.18 69.8z" transform="translate(-61.093 -61.093)" style="fill:#007f81"/>
    <path data-name="Path 6667" d="M14.944 2.564a8.754 8.754 0 0 0-12.38 12.38 8.754 8.754 0 0 0 12.38-12.38zm-.817 11.166-.4.4.81.81a8.443 8.443 0 0 1-5.507 2.285v-1.15h-.556v1.15a8.443 8.443 0 0 1-5.507-2.285l.81-.81-.4-.4-.81.81A8.443 8.443 0 0 1 .286 9.034h1.15v-.561H.285A8.443 8.443 0 0 1 2.57 2.967l.81.81.4-.4-.81-.81A8.443 8.443 0 0 1 8.474.285v1.15h.561V.285a8.443 8.443 0 0 1 5.506 2.285l-.81.81.4.4.81-.81a8.443 8.443 0 0 1 2.285 5.507h-1.15v.561h1.15a8.443 8.443 0 0 1-2.285 5.507z" style="fill:#007f81"/>
    <circle data-name="Ellipse 66" cx=".681" cy=".681" r=".681" transform="translate(8.073 8.073)" style="fill:#007f81"/>
</svg>
