<svg data-name="svgexport-17 (88)" xmlns="http://www.w3.org/2000/svg" width="24.965" height="24.965" viewBox="0 0 24.965 24.965">
    <path data-name="Path 6687" d="M0 0h24.965v14.969H0zm9.557 16.432H6.6a2.043 2.043 0 0 0-2.2 1.828v.366h.748a3.8 3.8 0 0 1 2.926 1.319A3.8 3.8 0 0 1 11 18.626h.748v-.366a2.043 2.043 0 0 0-2.191-1.828zm8.809 0h-2.958a2.043 2.043 0 0 0-2.194 1.828v.366h.748a3.8 3.8 0 0 1 2.926 1.319 3.8 3.8 0 0 1 2.926-1.319h.748v-.366a2.043 2.043 0 0 0-2.196-1.828zm4.4 3.657h-2.953a2.043 2.043 0 0 0-2.194 1.828v3.047h7.346v-3.047a2.043 2.043 0 0 0-2.194-1.828zm-17.618 0H2.194A2.043 2.043 0 0 0 0 21.917v3.047h7.346v-3.047a2.043 2.043 0 0 0-2.194-1.828zm8.809 0H11a2.043 2.043 0 0 0-2.194 1.828v3.047h7.346v-3.047a2.043 2.043 0 0 0-2.191-1.828z" style="fill:#a93800"/>
</svg>
