<svg xmlns="http://www.w3.org/2000/svg" width="21.394" height="19.241" viewBox="0 0 21.394 19.241">
    <path data-name="Path 6526" d="M12.856 32.692a1.309 1.309 0 0 0-1.339-1.278h-1.64a1.279 1.279 0 1 0 0 2.555h1.639a1.309 1.309 0 0 0 1.34-1.277zM2.815 29.4a6.075 6.075 0 0 0 .766.01 3.76 3.76 0 0 0 3.729 2.925h.51a1.913 1.913 0 0 0 0 .718h-.511A4.5 4.5 0 0 1 2.815 29.4zm-.383-.764A2.825 2.825 0 0 1 0 25.889v-1.7a2.853 2.853 0 0 1 2.917-2.784h.194a7.477 7.477 0 0 1 7.586-6.68 7.477 7.477 0 0 1 7.586 6.68h.194a2.853 2.853 0 0 1 2.917 2.784v1.7a2.853 2.853 0 0 1-2.917 2.784h-.861a.632.632 0 0 1-.646-.617v-6.065A6.134 6.134 0 0 0 10.7 16a6.134 6.134 0 0 0-6.273 5.986v6.065a.615.615 0 0 1-.355.551 4.13 4.13 0 0 1-1.637.027z" transform="translate(0 -14.729)" style="fill:#007f81;fill-rule:evenodd"/>
</svg>
