<svg xmlns="http://www.w3.org/2000/svg" width="19.33" height="17.28" viewBox="0 0 19.33 17.28">
    <g data-name="svgexport-17 (92)">
        <path data-name="Path 6692" d="M14.211 23.224H8.617a1.336 1.336 0 0 0-.945.391L.391 30.9a1.337 1.337 0 0 0 0 1.89l5.594 5.594a1.336 1.336 0 0 0 1.889 0l7.281-7.28a1.34 1.34 0 0 0 .391-.946V24.56a1.336 1.336 0 0 0-1.336-1.336zM11.873 27.9a1 1 0 1 1 1-1 1 1 0 0 1-1 1z" transform="translate(.611 -22.724)" style="fill:none;stroke:#007f81"/>
        <path data-name="Path 6693" d="M226.728 55.224v6.219a1.16 1.16 0 0 1-.341.822l-7.4 7.4.114.114a1.336 1.336 0 0 0 1.889 0l6.681-6.68a1.334 1.334 0 0 0 .392-.945V56.56a1.336 1.336 0 0 0-1.335-1.336z" transform="translate(-209.234 -53.388)" style="fill:none;stroke:#007f81"/>
    </g>
</svg>
