<svg data-name="svgexport-17 - 2023-11-20T151641.612" xmlns="http://www.w3.org/2000/svg" width="13.972" height="9.167" viewBox="0 0 13.972 9.167">
    <path data-name="Path 6711" d="M36.339 156.839v-.019a.222.222 0 0 0-.222-.222h-11.31v-2.76h13.972v2.76h-1.7a.222.222 0 0 0-.222.222v.019h-.518z" transform="translate(-24.807 -153.839)" style="fill:#b21727"/>
    <path data-name="Path 6712" d="M37.1 157.562a.24.24 0 0 1 .24.24h.481a.24.24 0 0 1 .24-.24h1.682v-2.723H25.807v2.723z" transform="translate(-25.788 -154.82)" style="fill:#b21727"/>
    <path data-name="Path 6713" d="M24.807 497.925h13.972v2.76H24.807z" transform="translate(-24.807 -491.518)" style="fill:#103b9b"/>
    <path data-name="Path 6714" d="M25.807 498.925h13.935v2.723H25.807z" transform="translate(-25.788 -492.5)" style="fill:#103b9b"/>
</svg>
