<svg xmlns="http://www.w3.org/2000/svg" width="18.747" height="17.85" viewBox="0 0 18.747 17.85">
    <g data-name="svgexport-17 (60)">
        <path data-name="Path 6532" d="M189.59 183.017a6.575 6.575 0 0 1-.479 2.434 3.034 3.034 0 0 1 1.591.973.549.549 0 0 1-.833.716 1.935 1.935 0 0 0-1.281-.665 6.662 6.662 0 0 1-1.145 1.377h1.237a.549.549 0 1 1 0 1.1h-2.134a1.935 1.935 0 0 0 3.324.711.549.549 0 1 1 .833.716 3.033 3.033 0 0 1-5.25-1.267 6.575 6.575 0 0 1-2.434.48 5.513 5.513 0 1 0 6.572-6.572z" transform="translate(-176.317 -176.765)" style="fill:#007f81"/>
        <path data-name="Path 6533" d="M12.176 18.466a5.513 5.513 0 1 0-5.513 5.513 5.519 5.519 0 0 0 5.513-5.513zM6.114 21.33v-.109H5.56a.549.549 0 0 1 0-1.1h1.1a.554.554 0 1 0 0-1.108 1.652 1.652 0 0 1-.549-3.21v-.2a.549.549 0 0 1 1.1 0v.109h.554a.549.549 0 0 1 0 1.1h-1.1a.554.554 0 1 0 0 1.108 1.652 1.652 0 0 1 .549 3.21v.2a.549.549 0 1 1-1.1 0zM7 29.026a8.672 8.672 0 0 1-4.862-4l.358.12a.549.549 0 1 0 .35-1.041l-1.585-.533a.549.549 0 0 0-.7.345l-.532 1.588a.549.549 0 1 0 1.041.35l.1-.3a10.192 10.192 0 0 0 1.935 2.439 9.275 9.275 0 0 0 3.573 2.084A.549.549 0 1 0 7 29.026zm11.373-12.874a.549.549 0 0 0-.7.345l-.1.3a10.194 10.194 0 0 0-1.947-2.451 9.273 9.273 0 0 0-3.561-2.072.549.549 0 1 0-.318 1.051 8.678 8.678 0 0 1 4.861 4l-.358-.12a.549.549 0 1 0-.35 1.041l1.585.533a.549.549 0 0 0 .7-.345l.533-1.585a.549.549 0 0 0-.345-.697z" transform="translate(0 -12.252)" style="fill:#007f81"/>
    </g>
</svg>
