<svg xmlns="http://www.w3.org/2000/svg" width="22.01" height="22.796" viewBox="0 0 22.01 22.796">
    <g data-name="svgexport-17 (19)">
        <path data-name="Path 6422" d="M24.01 6.3v3.2H2V6.3A2.334 2.334 0 0 1 4.358 4H5.93v1.572a2.358 2.358 0 1 0 4.716 0V4h4.716v1.572a2.358 2.358 0 0 0 4.716 0V4h1.572a2.334 2.334 0 0 1 2.36 2.3zM2 11.075v12.632a2.334 2.334 0 0 0 2.358 2.3h17.294a2.334 2.334 0 0 0 2.358-2.3V11.075zm7.075 11a.788.788 0 0 1-.786.786H6.716a.788.788 0 0 1-.786-.786v-1.568a.788.788 0 0 1 .786-.786h1.573a.788.788 0 0 1 .786.786zm0-5.5a.788.788 0 0 1-.786.786H6.716a.788.788 0 0 1-.786-.786V15a.788.788 0 0 1 .786-.786h1.573a.788.788 0 0 1 .786.786zm5.5 5.5a.788.788 0 0 1-.786.786h-1.57a.788.788 0 0 1-.786-.786v-1.568a.788.788 0 0 1 .786-.786h1.572a.788.788 0 0 1 .786.786zm0-5.5a.788.788 0 0 1-.786.786h-1.57a.788.788 0 0 1-.786-.786V15a.788.788 0 0 1 .786-.786h1.572a.788.788 0 0 1 .786.786zm5.5 0a.788.788 0 0 1-.786.786h-1.568a.788.788 0 0 1-.786-.786V15a.788.788 0 0 1 .786-.786h1.572a.788.788 0 0 1 .786.786z" transform="translate(-2 -3.214)" style="fill:#007f81"/>
        <path data-name="Path 6423" d="M10.572 3.786v1.572a.786.786 0 1 1-1.572 0V3.786a.786.786 0 0 1 1.572 0zm9.433 0v1.572a.786.786 0 1 1-1.572 0V3.786a.786.786 0 1 1 1.572 0z" transform="translate(-3.498 -3)" style="fill:#007f81"/>
    </g>
</svg>
