<svg xmlns="http://www.w3.org/2000/svg" width="16.884" height="21.543" viewBox="0 0 16.884 21.543">
    <g data-name="svgexport-17 (84)">
        <path data-name="Layer 56" d="M5.6 9.694a.717.717 0 0 1 .649-.769h5.2a.717.717 0 0 1 .649.769.717.717 0 0 1-.649.769h-5.2a.717.717 0 0 1-.649-.769zm14.284-3.847v15.388a2.151 2.151 0 0 1-1.948 2.308H4.948A2.151 2.151 0 0 1 3 21.235V5.847a2.151 2.151 0 0 1 1.948-2.308H6.9A1.434 1.434 0 0 1 8.2 2h6.494a1.434 1.434 0 0 1 1.3 1.539h1.948a2.151 2.151 0 0 1 1.942 2.308zM8.2 5.078h6.494V3.539H8.2zm10.39.769a.717.717 0 0 0-.649-.769h-1.953a1.434 1.434 0 0 1-1.3 1.539H8.2a1.434 1.434 0 0 1-1.3-1.539H4.948a.717.717 0 0 0-.649.769v15.388a.717.717 0 0 0 .649.765h12.988a.717.717 0 0 0 .649-.769zm-3.247 6.925H6.247a.78.78 0 0 0 0 1.539h9.091a.78.78 0 0 0 0-1.539zm0 3.847H6.247a.78.78 0 0 0 0 1.539h9.091a.78.78 0 0 0 0-1.539z" transform="translate(-3 -2)" style="fill:#007f81"/>
    </g>
</svg>
