<svg xmlns="http://www.w3.org/2000/svg" width="59.484" height="23.613" viewBox="0 0 59.484 23.613">
    <g data-name="Group 3361">
        <path data-name="Path 6458" d="M12.69 28.565a1.686 1.686 0 0 1-1.2-2.883l8.936-8.92-8.936-8.92a1.686 1.686 0 0 1 2.38-2.377l10.117 10.117a1.686 1.686 0 0 1 0 2.377L13.87 28.076a1.686 1.686 0 0 1-1.18.489z" transform="translate(35.006 -5.059)" style="fill:#17b5b6"/>
        <path data-name="Path 6459" d="M6.69 28.609a1.686 1.686 0 0 1-1.2-2.883l8.936-8.92-8.933-8.92a1.693 1.693 0 0 1 2.394-2.394L18 15.609a1.686 1.686 0 0 1 0 2.377L7.887 28.1a1.686 1.686 0 0 1-1.197.509z" transform="translate(30.006 -4.996)" style="opacity:.66;fill:#17b5b6"/>
        <path data-name="Path 6458" d="M12.69 28.565a1.686 1.686 0 0 1-1.2-2.883l8.936-8.92-8.936-8.92a1.686 1.686 0 0 1 2.38-2.377l10.117 10.117a1.686 1.686 0 0 1 0 2.377L13.87 28.076a1.686 1.686 0 0 1-1.18.489z" transform="translate(12.007 -5.059)" style="opacity:.39;fill:#17b5b6"/>
        <path data-name="Path 6459" d="M6.69 28.609a1.686 1.686 0 0 1-1.2-2.883l8.936-8.92-8.933-8.92a1.693 1.693 0 0 1 2.394-2.394L18 15.609a1.686 1.686 0 0 1 0 2.377L7.887 28.1a1.686 1.686 0 0 1-1.197.509z" transform="translate(7.007 -4.996)" style="opacity:.25;fill:#17b5b6"/>
        <path data-name="Path 6461" d="M6.69 28.609a1.686 1.686 0 0 1-1.2-2.883l8.936-8.92-8.933-8.92a1.693 1.693 0 0 1 2.394-2.394L18 15.609a1.686 1.686 0 0 1 0 2.377L7.887 28.1a1.686 1.686 0 0 1-1.197.509z" transform="translate(-4.994 -4.996)" style="opacity:.14;fill:#17b5b6"/>
    </g>
</svg>
