<svg xmlns="http://www.w3.org/2000/svg" width="18" height="18" viewBox="0 0 18 18">
    <g data-name="Group 69405" transform="translate(-34 -835)">
        <circle data-name="Ellipse 80" cx="9" cy="9" r="9" transform="translate(34 835)" style="fill:#ffd230"/>
        <g data-name="svgexport-17 - 2023-11-21T112220.545">
            <path data-name="7-Check" d="M39.55 843.877a.908.908 0 0 0-.7 1.481l2.307 2.826a.824.824 0 0 0 .689.306.884.884 0 0 0 .694-.411l4.792-7.717a.248.248 0 0 0-.062-.292.255.255 0 0 0-.37.026l-.005.006-4.833 5.46a.209.209 0 0 1-.3.016l-1.6-1.459a.9.9 0 0 0-.61-.238z"/>
        </g>
    </g>
</svg>
