<svg xmlns="http://www.w3.org/2000/svg" width="26.723" height="19.691" viewBox="0 0 26.723 19.691">
    <g data-name="Group 3323">
        <g data-name="svgexport-21 (2)">
            <path data-name="Path 6414" d="M2.617 67.2a.639.639 0 0 0-.277.8.6.6 0 0 0 .746.351l8.432-2.917-1.579 2.682a.524.524 0 0 0 .059.611.475.475 0 0 0 .582.1l1.654-.893a.488.488 0 0 0 .128-.1l4.9-5.321 6.045-3.28c2.29-1.283 2.024-2.27 1.889-2.542a1.3 1.3 0 0 0-.864-.643 4.945 4.945 0 0 0-2.191.037 2.731 2.731 0 0 1-.673.049c-.647-.018-1.086.027-3.266 1.2l-11.92 6.451-4.623-2.495a.583.583 0 0 0-.556 0l-.779.421a.625.625 0 0 0-.312.427.646.646 0 0 0 .12.522l3.208 4.157-.723.387zm21.953 5.052H2a1.2 1.2 0 0 0 0 2.39h22.57a1.2 1.2 0 0 0 0-2.39z" transform="translate(.504 -55.45)" style="stroke:#007f81;fill:none"/>
        </g>
        <g data-name="Rectangle 250" style="fill:#007f81;stroke:#007f81">
            <path style="stroke:none" d="M0 0h25v2H0z" transform="translate(1.286 17.079)"/>
            <path style="fill:none" d="M.5.5h24v1H.5z" transform="translate(1.286 17.079)"/>
        </g>
    </g>
</svg>
