<svg xmlns="http://www.w3.org/2000/svg" width="23.605" height="30.411" viewBox="0 0 23.605 30.411">
    <g data-name="svgexport-21 (58)">
        <path data-name="Path 16058" d="M3.459 42.121.912 39.174h2.33L7.2 41.809l-1.633.129a7.3 7.3 0 0 0-1.4.133l-.7.05zm-.217 6.612H.912l2.547-2.947.683.049a7.2 7.2 0 0 0 1.395.134l1.654.13-3.949 2.633zm10.173 6.449H9.279l5.293-8.5 6.643.523zm8.865-13.988a13.18 13.18 0 0 1 1.526-.12h.041a.143.143 0 0 0 .036 0h.209c3.424 0 6.319 1.321 6.319 2.885s-2.894 2.885-6.319 2.885l-.209-.006h-.09a13.074 13.074 0 0 1-1.528-.121l-.133-.012a.269.269 0 0 0-.184-.1l-7.48-.539a.269.269 0 0 0-.141.028l-6.041-.475a.273.273 0 0 0-.155-.061l-3.912-.283c-1.205-.247-1.97-.8-1.97-1.313s.766-1.068 1.983-1.314l3.9-.282a.282.282 0 0 0 .152-.061l6.18-.487 7.482-.539a.282.282 0 0 0 .155-.062l.182-.015zm-8.865-8.507 7.834 8.013-6.654.524-5.316-8.537zm-13.129 0h7.238a.286.286 0 0 0 0-.572H.286a.286.286 0 0 0 0 .572zm0 2.766h7.238a.286.286 0 0 0 0-.572H.286a.286.286 0 0 0 0 .572zm0 17.5h7.238a.286.286 0 0 0 0-.572H.286a.286.286 0 0 0 0 .572zm0 2.766h7.238a.286.286 0 0 0 0-.572H.286a.286.286 0 0 0 0 .572z" style="fill:#007f81" transform="rotate(90 27.86 27.86)"/>
    </g>
</svg>
