<svg xmlns="http://www.w3.org/2000/svg" width="27" height="27" viewBox="0 0 27 27">
    <g data-name="svgexport-6 - 2022-09-27T104225.085">
        <path data-name="Path 60" d="m26.947 9.531-7.271-6.012a6.5 6.5 0 0 0-8.351 0L4.053 9.531A5.758 5.758 0 0 0 2 13.97v9.375A5.532 5.532 0 0 0 7.4 29h2.7a2.7 2.7 0 0 0 2.7-2.7v-4.39a2.836 2.836 0 0 1 2.7-2.955 2.836 2.836 0 0 1 2.7 2.955v4.39a2.7 2.7 0 0 0 2.7 2.7h2.7a5.532 5.532 0 0 0 5.4-5.655V13.97a5.757 5.757 0 0 0-2.053-4.439z" transform="translate(-2 -2)" style="fill:#007f81;fill-rule:evenodd"/>
    </g>
</svg>
