<svg data-name="svgexport-17 (49)" xmlns="http://www.w3.org/2000/svg" width="9.18" height="9.18" viewBox="0 0 9.18 9.18">
    <path data-name="Path 6498" d="M199.475 132.162a.447.447 0 0 1-.269-.061.28.28 0 0 1-.077-.229 1.2 1.2 0 0 1 .025-.209 2.319 2.319 0 0 1 .054-.234l.246-.847a1.278 1.278 0 0 0 .05-.257c0-.094.012-.159.012-.2a.549.549 0 0 0-.194-.436.816.816 0 0 0-.551-.167 1.431 1.431 0 0 0-.417.069q-.221.069-.465.165l-.071.275c.048-.017.106-.035.173-.056a.71.71 0 0 1 .2-.029.4.4 0 0 1 .265.065.3.3 0 0 1 .069.227 1 1 0 0 1-.023.209q-.022.109-.056.232l-.248.851a2.432 2.432 0 0 0-.048.24 1.5 1.5 0 0 0-.015.209.545.545 0 0 0 .209.432.835.835 0 0 0 .559.171 1.286 1.286 0 0 0 .417-.061q.177-.06.474-.173l.067-.263a1.153 1.153 0 0 1-.165.054.791.791 0 0 1-.221.023zm.261-4.016a.635.635 0 0 0-.835 0 .5.5 0 0 0-.052.7.492.492 0 0 0 .052.052.626.626 0 0 0 .835 0 .5.5 0 0 0 .049-.706.485.485 0 0 0-.05-.046z" transform="translate(-194.271 -125.695)" style="fill:#a93800"/>
    <path data-name="Path 6499" d="M4.59 0a4.59 4.59 0 1 0 4.59 4.59A4.59 4.59 0 0 0 4.59 0zm0 8.762A4.173 4.173 0 1 1 8.762 4.59 4.173 4.173 0 0 1 4.59 8.762z" style="fill:#a93800"/>
</svg>
