<svg xmlns="http://www.w3.org/2000/svg" width="17.583" height="17.584" viewBox="0 0 17.583 17.584">
    <path data-name="Layer 2" d="M21.791 18.881a8.751 8.751 0 0 0 1.293-4.59A8.751 8.751 0 0 0 21.791 9.7v-.008a8.792 8.792 0 0 0-14.988 0V9.7a8.794 8.794 0 0 0 0 9.18v.008a8.792 8.792 0 0 0 14.988 0zm-6.375 2.7a2.137 2.137 0 0 1-.571.394 1.288 1.288 0 0 1-1.106 0 2.691 2.691 0 0 1-1-.878 7.858 7.858 0 0 1-1.135-2.464q1.341-.083 2.686-.084t2.686.084a9.918 9.918 0 0 1-.482 1.326 5.1 5.1 0 0 1-1.08 1.621zm-8.911-6.796h3.546a17.446 17.446 0 0 0 .321 2.947q-1.454.128-2.9.352a7.751 7.751 0 0 1-.966-3.3zm.967-4.285q1.446.224 2.9.352a17.416 17.416 0 0 0-.321 2.946H6.505a7.751 7.751 0 0 1 .967-3.298zm5.7-3.493a2.136 2.136 0 0 1 .571-.394 1.288 1.288 0 0 1 1.106 0 2.691 2.691 0 0 1 1 .878 7.858 7.858 0 0 1 1.135 2.464q-1.341.083-2.686.084t-2.686-.084a9.916 9.916 0 0 1 .482-1.326 5.1 5.1 0 0 1 1.08-1.621zm8.907 6.793h-3.546a17.448 17.448 0 0 0-.321-2.947q1.454-.128 2.9-.352a7.751 7.751 0 0 1 .966 3.3zm-10.713 3.855a16.338 16.338 0 0 1-.326-2.87h6.5a16.335 16.335 0 0 1-.325 2.87q-1.462-.1-2.927-.1t-2.926.1zm5.853-6.727a16.339 16.339 0 0 1 .326 2.87h-6.5a16.335 16.335 0 0 1 .325-2.87q1.462.1 2.927.1t2.926-.1zm1.314 3.858h3.547a7.751 7.751 0 0 1-.966 3.3q-1.446-.224-2.9-.352a17.415 17.415 0 0 0 .318-2.949zm1.988-5.2q-1.264.182-2.536.289A11.265 11.265 0 0 0 17.4 8.22a7.01 7.01 0 0 0-.818-1.392A7.8 7.8 0 0 1 20.52 9.59zM8.774 8.773a7.8 7.8 0 0 1 3.231-1.945l-.056.071a9.018 9.018 0 0 0-1.349 2.98q-1.27-.108-2.536-.289a7.868 7.868 0 0 1 .71-.817zm-.71 10.219q1.264-.182 2.536-.292a11.265 11.265 0 0 0 .588 1.659 7.011 7.011 0 0 0 .818 1.392 7.8 7.8 0 0 1-3.942-2.762zm11.747.817a7.8 7.8 0 0 1-3.231 1.945l.056-.071a9.018 9.018 0 0 0 1.347-2.983q1.272.108 2.538.289a7.869 7.869 0 0 1-.71.817z" transform="translate(-5.5 -5.499)" style="fill:#007f81"/>
</svg>
