<svg xmlns="http://www.w3.org/2000/svg" width="15.928" height="15.946" viewBox="0 0 15.928 15.946">
    <g data-name="svgexport-17 - 2023-11-20T152528.568">
        <path data-name="Path 6717" d="M.639 6.608a.445.445 0 0 0-.445.445v6.535a.445.445 0 0 0 .445.445h2.68V6.608zm14.583 2.457a1.552 1.552 0 0 0-.756-1.331A1.55 1.55 0 0 0 13.191 5.3H9.917c.1-.455.238-1.137.333-1.851.25-1.858.078-2.889-.535-3.243A1.341 1.341 0 0 0 8.554.08a1.527 1.527 0 0 0-.883 1.02L6.81 3.356a8.4 8.4 0 0 1-2.6 2.834v8.039a14.382 14.382 0 0 0 4.773.811h3.567a1.55 1.55 0 0 0 1.318-2.368 1.55 1.55 0 0 0 .6-2.276 1.552 1.552 0 0 0 .756-1.331z" transform="translate(.256 .456)" style="fill:none;stroke:#4c98fa;stroke-width:.9px"/>
    </g>
</svg>
