<svg xmlns="http://www.w3.org/2000/svg" width="12.381" height="16.509" viewBox="0 0 12.381 16.509">
    <g data-name="Group 69392" transform="translate(-36 -1020)">
        <circle data-name="Ellipse 85" cx="4.5" cy="4.5" r="4.5" transform="translate(37 1021)" style="fill:#fff"/>
        <g data-name="svgexport-6 - 2022-09-26T220747.935">
            <g data-name="Group 12">
                <g data-name="Group 11">
                    <path data-name="Path 17" d="M70.191 0A6.2 6.2 0 0 0 64 6.191c0 4.567 5.712 10 5.955 10.224a.344.344 0 0 0 .472 0c.243-.229 5.955-5.657 5.955-10.224A6.2 6.2 0 0 0 70.191 0zm0 9.63a3.439 3.439 0 1 1 3.439-3.439 3.443 3.443 0 0 1-3.439 3.439z" transform="translate(-28 1020)" style="fill:#a93800"/>
                </g>
            </g>
        </g>
    </g>
</svg>
