<svg xmlns="http://www.w3.org/2000/svg" width="159.502" height="171.343" viewBox="0 0 159.502 171.343">
    <defs>
        <filter id="ts9t8mf4za" x="71.886" y="87.274" width="32.09" height="25.198" filterUnits="userSpaceOnUse">
            <feOffset dy="3"/>
            <feGaussianBlur stdDeviation="3" result="blur"/>
            <feFlood flood-opacity=".769"/>
            <feComposite operator="in" in2="blur"/>
            <feComposite in="SourceGraphic"/>
        </filter>
        <filter id="e5vu8akbhb" x="71.886" y="34.063" width="87.615" height="54.572" filterUnits="userSpaceOnUse">
            <feOffset dy="3"/>
            <feGaussianBlur stdDeviation="3" result="blur-2"/>
            <feFlood flood-opacity=".769"/>
            <feComposite operator="in" in2="blur-2"/>
            <feComposite in="SourceGraphic"/>
        </filter>
        <filter id="fp33ddlssc" x="0" y="33.983" width="87.602" height="54.678" filterUnits="userSpaceOnUse">
            <feOffset dy="3"/>
            <feGaussianBlur stdDeviation="3" result="blur-3"/>
            <feFlood flood-opacity=".769"/>
            <feComposite operator="in" in2="blur-3"/>
            <feComposite in="SourceGraphic"/>
        </filter>
        <filter id="hqlxyqty2d" x="55.645" y="87.261" width="32.09" height="25.224" filterUnits="userSpaceOnUse">
            <feOffset dy="3"/>
            <feGaussianBlur stdDeviation="3" result="blur-4"/>
            <feFlood flood-opacity=".769"/>
            <feComposite operator="in" in2="blur-4"/>
            <feComposite in="SourceGraphic"/>
        </filter>
        <filter id="k1ok0ztere" x="19.153" y="111.947" width="49.91" height="50.642" filterUnits="userSpaceOnUse">
            <feOffset dy="3"/>
            <feGaussianBlur stdDeviation="3" result="blur-5"/>
            <feFlood flood-opacity=".769"/>
            <feComposite operator="in" in2="blur-5"/>
            <feComposite in="SourceGraphic"/>
        </filter>
        <filter id="syb90xap6f" x="64.578" y="112.585" width="39.929" height="49.526" filterUnits="userSpaceOnUse">
            <feOffset dy="3"/>
            <feGaussianBlur stdDeviation="3" result="blur-6"/>
            <feFlood flood-opacity=".769"/>
            <feComposite operator="in" in2="blur-6"/>
            <feComposite in="SourceGraphic"/>
        </filter>
        <filter id="fix8tv1h0g" x="90.717" y="110.638" width="22.807" height="51.513" filterUnits="userSpaceOnUse">
            <feOffset dy="3"/>
            <feGaussianBlur stdDeviation="3" result="blur-7"/>
            <feFlood flood-opacity=".769"/>
            <feComposite operator="in" in2="blur-7"/>
            <feComposite in="SourceGraphic"/>
        </filter>
        <filter id="qi2yfmbjmh" x="99.343" y="120.46" width="41.001" height="50.883" filterUnits="userSpaceOnUse">
            <feOffset dy="3"/>
            <feGaussianBlur stdDeviation="3" result="blur-8"/>
            <feFlood flood-opacity=".769"/>
            <feComposite operator="in" in2="blur-8"/>
            <feComposite in="SourceGraphic"/>
        </filter>
    </defs>
    <g data-name="Layer 2">
        <g data-name="Layer 1">
            <g style="filter:url(#ts9t8mf4za)">
                <path data-name="Path 16065" d="M54.15 72.574v4.874h.279a53.809 53.809 0 0 0 13.811-2.125V70.25a49.519 49.519 0 0 1-13.811 2.324z" transform="translate(26.74 23.02)" style="fill:#e7eef6"/>
            </g>
            <g style="filter:url(#e5vu8akbhb)">
                <path data-name="Path 16066" d="M77 44.748a12.749 12.749 0 0 1 2.656-.478h31.167a12.881 12.881 0 0 0 12.894-13.944v-.146H79.9a21.4 21.4 0 0 0-2.457.159 24.393 24.393 0 0 0-2.43.4 23.479 23.479 0 0 0-2.35.611 22.573 22.573 0 0 0-2.3.837 19.269 19.269 0 0 0-2.244 1.062 23.4 23.4 0 0 0-2.231 1.328 28.622 28.622 0 0 0-2.258 1.687 27.462 27.462 0 0 0-2.656 2.576 27.117 27.117 0 0 0-3.439 4.781 26.784 26.784 0 0 0-1.594 3.32 22.416 22.416 0 0 0-.876 2.656 23.043 23.043 0 0 0-.544 2.523 15.587 15.587 0 0 0-.212 1.554c0 .305-.066.6-.093.9 0 .611-.066 1.235-.066 1.872v10.3A29.813 29.813 0 0 0 68.24 62.7v-.89h30.728a17.051 17.051 0 0 0 16.785-14.09H71.931a11.181 11.181 0 0 1 1.912-1.54A11.62 11.62 0 0 1 77 44.748z" transform="translate(26.74 9.88)" style="fill:#e7eef6"/>
            </g>
            <g style="filter:url(#fp33ddlssc)">
                <path data-name="Path 16067" d="M69.619 66.8V54.647l-.08-.9a10.4 10.4 0 0 0-.212-1.554 26.53 26.53 0 0 0-.558-2.523 22.417 22.417 0 0 0-.876-2.656 26.785 26.785 0 0 0-1.58-3.36 26.453 26.453 0 0 0-6.122-7.357c-.73-.6-1.487-1.155-2.271-1.686a24.954 24.954 0 0 0-2.22-1.33 20.542 20.542 0 0 0-2.258-1.062 22.577 22.577 0 0 0-2.377-.93 23.478 23.478 0 0 0-2.35-.611c-.8-.173-1.607-.305-2.417-.4s-1.633-.146-2.47-.159H.061v.146A12.881 12.881 0 0 0 12.969 44.21h31.113a12.869 12.869 0 0 1 2.656.478 11.726 11.726 0 0 1 3.2 1.487 11.18 11.18 0 0 1 1.912 1.54H7.962A17.051 17.051 0 0 0 24.8 61.832h30.729v.863a29.852 29.852 0 0 0 14.09 4.105z" transform="translate(8.98 9.86)" style="fill:#e7eef6"/>
            </g>
            <g style="filter:url(#hqlxyqty2d)">
                <path data-name="Path 16068" d="M41.92 70.24v5.1a53.808 53.808 0 0 0 13.811 2.125h.279v-4.888h-.279A49.134 49.134 0 0 1 41.92 70.24z" transform="translate(22.73 23.02)" style="fill:#e7eef6"/>
            </g>
            <path data-name="Path 16069" d="M34.573 34.165A32.522 32.522 0 0 1 95.885 37.6h14.488a46.624 46.624 0 0 0-91.483 0h14.488a30.954 30.954 0 0 1 1.2-3.439z" transform="translate(15.173 -.011)" style="fill:#fff"/>
            <path data-name="Path 16070" d="M99.149 56.71h-21.38a31.871 31.871 0 0 1-3.346 1.554 37.67 37.67 0 0 1-1.726.624 33.849 33.849 0 0 1-7.1 1.5c-.611 0-1.208.093-1.819.12h-2.662l-1.686-.12a12.939 12.939 0 0 1-1.926-.226c-.6-.093-1.2-.2-1.779-.332a32.987 32.987 0 0 1-3.532-.943 33.929 33.929 0 0 1-5.073-2.177H25.66A48.071 48.071 0 0 0 40 68.954q1.912 1.036 3.864 1.872 1.673.744 3.386 1.328a46.889 46.889 0 0 0 6.826 1.779 49.791 49.791 0 0 0 5.232.637q.876 0 1.753.08h4.289l.943-.066.823-.08.956-.106.81-.106.956-.146.8-.133.983-.186.757-.159a4.8 4.8 0 0 0 1.049-.239l.691-.173c.385-.093.77-.212 1.155-.319l.558-.159c.571-.173 1.142-.345 1.7-.544a35.276 35.276 0 0 0 3.386-1.328h14.248a10.026 10.026 0 0 0 7.091-2.882 56.132 56.132 0 0 0 8.672-11.168z" transform="translate(17.393 18.584)" style="fill:#fff"/>
            <g style="filter:url(#k1ok0ztere)">
                <path data-name="Path 16071" d="M43.482 121.471a4.13 4.13 0 0 1-2.908-1.607l-1.222-1.208a15.59 15.59 0 0 1-9.057 2.815c-9.3 0-15.856-6.64-15.856-16.254S21.08 88.83 30.375 88.83s15.8 6.64 15.8 16.294a16.772 16.772 0 0 1-3.585 10.517l3.732 3.838c.215.186-.901 1.992-2.84 1.992zm-7.131-6.016-4.993-5.155a2.191 2.191 0 0 1-.292-3.107l.345-.292c.916-.876 2.125-.478 3 .491l4.9 5.033a12.894 12.894 0 0 0 1.939-7.224c0-6.932-4.515-11.952-10.916-11.952s-10.863 4.953-10.863 11.885 4.568 11.952 10.916 11.952a11.367 11.367 0 0 0 5.963-1.633z" transform="translate(13.71 29.12)" style="fill:#fff"/>
            </g>
            <g style="filter:url(#syb90xap6f)">
                <path data-name="Path 16072" d="M48.651 92.112a2.656 2.656 0 0 1 2.656-2.8h16.931c1.554 0 2.337.717 2.337 2.032v.292c0 1.328-.783 2.085-2.337 2.085H53.631v9.979h10.862c1.594 0 2.324.73 2.324 1.992v.186c0 1.328-.783 2.045-2.324 2.045H53.7v10.624c0 1.5-.73 2.284-2.178 2.284h-.783c-1.328 0-2.085-.93-2.085-2.656z" transform="translate(24.93 29.27)" style="fill:#fff"/>
            </g>
            <g style="filter:url(#fix8tv1h0g)">
                <path data-name="Path 16073" d="M68.33 119.072V88.383a2.5 2.5 0 0 1 1.753-.531c1.5 0 3.054.77 3.054 4.117v27.1c0 1.753-.876 2.284-2.138 2.284h-.452c-1.327.003-2.217-.528-2.217-2.281z" transform="translate(31.39 28.79)" style="fill:#fff"/>
            </g>
            <g style="filter:url(#qi2yfmbjmh)">
                <path data-name="Path 16074" d="m81.338 126.872 3.878-9.455a2.005 2.005 0 0 1-2.032-1.328l-8.353-19.521c-.093-.279.969-1.328 2.523-1.328s2.284.624 3.054 2.656l6.308 16.095 5.577-15.935c.677-2.125 1.74-2.8 3-2.8s2.656 1.062 2.523 1.328l-11.006 28.88c-.77 2.085-1.833 2.656-2.948 2.656-1.368.067-2.63-.996-2.524-1.248z" transform="translate(33.52 31.22)" style="fill:#fff"/>
            </g>
        </g>
    </g>
</svg>
