<svg xmlns="http://www.w3.org/2000/svg" width="22.43" height="19.472" viewBox="0 0 22.43 19.472">
    <path data-name="Path 132" d="M19.472 12.83a9.68 9.68 0 0 1-9.736 9.6A9.68 9.68 0 0 1 0 12.83a9.512 9.512 0 0 1 4.434-8.047 1.426 1.426 0 0 1 1.956.41 1.383 1.383 0 0 1-.416 1.929 6.742 6.742 0 0 0-3.142 5.708 6.9 6.9 0 0 0 13.808 0 6.762 6.762 0 0 0-3.14-5.708 1.383 1.383 0 0 1-.416-1.929 1.426 1.426 0 0 1 1.956-.41 9.512 9.512 0 0 1 4.432 8.047zM8.32 7.846V1.4a1.416 1.416 0 0 1 2.832 0v6.45a1.416 1.416 0 0 1-2.832 0z" transform="rotate(90 11.215 11.215)" style="fill:#fff;fill-rule:evenodd"/>
</svg>
