<svg data-name="svgexport-6 - 2022-09-26T223423.615" xmlns="http://www.w3.org/2000/svg" width="18.335" height="15.716" viewBox="0 0 18.335 15.716">
    <path data-name="Path 19" d="M97.523 316.957h1.747v4.366h-1.747zm0 0" transform="translate(-94.031 -305.607)" style="fill:#007f81"/>
    <path data-name="Path 20" d="M4.655.11a.435.435 0 0 0-.58 0L.146 3.6A.437.437 0 0 0 0 3.928v11.35a.436.436 0 0 0 .436.437h2.183v-4.8a.437.437 0 0 1 .437-.437h2.619a.437.437 0 0 1 .437.437v4.8h2.182a.436.436 0 0 0 .437-.436V3.928a.437.437 0 0 0-.147-.328zm1.02 7.748H3.056a.437.437 0 0 1 0-.873h2.619a.437.437 0 1 1 0 .873zm0-1.746H3.056a.437.437 0 0 1 0-.873h2.619a.437.437 0 1 1 0 .873zm0 0" transform="translate(0 .001)" style="fill:#007f81"/>
    <path data-name="Path 21" d="M365.715 316.957h1.746v4.366h-1.746zm0 0" transform="translate(-352.618 -305.607)" style="fill:#007f81"/>
    <path data-name="Path 22" d="M276.775 3.6 272.846.109a.435.435 0 0 0-.58 0L268.337 3.6a.437.437 0 0 0-.147.326v11.35a.436.436 0 0 0 .436.437h2.183v-4.8a.437.437 0 0 1 .437-.437h2.619a.437.437 0 0 1 .436.437v4.8h2.183a.436.436 0 0 0 .437-.436V3.928a.437.437 0 0 0-.147-.326zm-2.909 4.255h-2.619a.437.437 0 1 1 0-.873h2.619a.437.437 0 0 1 0 .873zm0-1.746h-2.619a.437.437 0 1 1 0-.873h2.619a.437.437 0 0 1 0 .873zm0 0" transform="translate(-258.587 .001)" style="fill:#007f81"/>
</svg>
