<svg xmlns="http://www.w3.org/2000/svg" width="31.146" height="28.187" viewBox="0 0 31.146 28.187">
    <g data-name="svgexport-17 (20)">
        <g data-name="Layer 42">
            <path data-name="Path 6428" d="M24.887 14.361a.518.518 0 0 1-.449-.259l-.259-.449a.518.518 0 1 1 .9-.518l.259.449a.518.518 0 0 1-.448.777zm1.582 5.834-2.377-.04a2.51 2.51 0 0 0-1.288.326L19.237 18.1a1.544 1.544 0 0 0-1.64-.052l-.789.456a.518.518 0 0 0-.131.79l2.9 3.306-1.4.933-.966-.656a1.567 1.567 0 0 0-1.651-.061l-.335.194a.518.518 0 0 0-.19.708l.849 1.472-.841.945a.518.518 0 0 0-.062.6l.518.9a.518.518 0 0 0 .449.259.545.545 0 0 0 .1-.01l1.24-.254.85 1.472a.518.518 0 0 0 .708.19l.335-.193a1.565 1.565 0 0 0 .773-1.459l-.085-1.165 1.511-.75 1.42 4.168a.518.518 0 0 0 .75.282l.789-.456a1.545 1.545 0 0 0 .774-1.446L24.834 24a2.569 2.569 0 0 0 .925-.95l1.154-2.079a.518.518 0 0 0-.445-.772zm-8.6-1.106.242-.14a.518.518 0 0 1 .547.018l3.191 2.125-1.4.933zm-1.248 4.649.615.418-.55.363-.493-.851a.518.518 0 0 1 .428.07zm-.56 2.81.363-.409.318.55-.535.11zm2.858 1.172a.521.521 0 0 1-.152.405l-.493-.854.591-.294zm4.893 1.1-.242.14-1.258-3.7 1.509-.749.247 3.827a.514.514 0 0 1-.256.482zm1.036-6.282a1.548 1.548 0 0 1-.667.638l-6.426 3.193-.549-.951 5.979-3.969a1.505 1.505 0 0 1 .886-.259l1.513.025z" transform="translate(-8.194 -8.591)" style="fill:#616161"/>
            <path data-name="Path 6429" d="m32.748 16.674-2.073-3.591a.513.513 0 0 0-.311-.238.522.522 0 0 0-.394.052 1.556 1.556 0 1 1-1.554-2.697.509.509 0 0 0 .238-.316.49.49 0 0 0-.054-.384l-2.071-3.595a2.591 2.591 0 0 0-3.54-.948L3.245 16.358A2.591 2.591 0 0 0 2.3 19.9l2.07 3.589a.513.513 0 0 0 .311.238.522.522 0 0 0 .394-.052 1.71 1.71 0 0 1 .446-.166 1.487 1.487 0 0 1 .083.477 1.559 1.559 0 0 1-1.555 1.555.518.518 0 0 0-.518.518v4.146a2.591 2.591 0 0 0 2.59 2.595h22.8a2.591 2.591 0 0 0 2.591-2.591v-4.15a.518.518 0 0 0-.512-.518 1.555 1.555 0 0 1 0-3.109.518.518 0 0 0 .518-.518v-1.535l.285-.166a2.591 2.591 0 0 0 .945-3.539zM6.121 31.76a1.559 1.559 0 0 1-1.555-1.555v-3.679a2.6 2.6 0 0 0 2.074-2.54c0-.1-.01-.207-.021-.311a1.532 1.532 0 0 1 .58.57 1.555 1.555 0 0 1-.57 2.125.509.509 0 0 0-.238.316.49.49 0 0 0 .052.389l2.073 3.591A2.577 2.577 0 0 0 9.78 31.76zm24.357-10.313a2.591 2.591 0 0 0 0 5.079v3.679a1.559 1.559 0 0 1-1.555 1.555h-5.7v-.518a.518.518 0 0 0-1.036 0v.518H11.765a2.525 2.525 0 0 0 .29-.145l10.173-5.872a.518.518 0 0 0 1-.2v-.373l7.255-4.187zm.8-2.13-4.934 2.85-.259-.451a.52.52 0 1 0-.9.518l.259.451-13.907 8.033a1.555 1.555 0 0 1-2.125-.57l-1.84-3.187a2.515 2.515 0 0 0 .783-1.27 2.587 2.587 0 0 0-3.322-3.125l-1.84-3.187a1.555 1.555 0 0 1 .57-2.125l19.745-11.4a1.555 1.555 0 0 1 2.125.57l1.84 3.187a2.515 2.515 0 0 0-.783 1.27 2.587 2.587 0 0 0 3.322 3.125l1.84 3.187a1.555 1.555 0 0 1-.57 2.125z" transform="translate(-1.949 -4.609)" style="fill:#616161"/>
            <path data-name="Path 6430" d="M34.989 13.841a.518.518 0 0 0 .449.259.509.509 0 0 0 .259-.07.518.518 0 0 0 .19-.707l-.259-.449a.518.518 0 1 0-.9.518zm1.934 1.277-.259-.449a.518.518 0 1 0-.9.518l.259.449a.518.518 0 1 0 .9-.518zm1.036 1.8-.259-.449a.518.518 0 1 0-.9.518l.259.449a.518.518 0 1 0 .9-.518zM39 18.709l-.259-.449a.518.518 0 1 0-.9.518l.259.449a.518.518 0 1 0 .9-.518zm1.032 1.791-.259-.449a.518.518 0 1 0-.9.518l.259.449a.518.518 0 1 0 .9-.518zm.777 1.346a.518.518 0 1 0-.9.518l.259.449a.518.518 0 1 0 .9-.518zm-3.766-8.6a.518.518 0 0 0 .708.19l3.59-2.073a.518.518 0 0 0 .19-.708L40.5 8.867a.518.518 0 0 0-.708-.19L36.2 10.75a.518.518 0 0 0-.19.708zm2.813-3.42.518.9-2.694 1.559-.518-.9zm5.821 8.01a.518.518 0 0 0-.708-.19l-3.59 2.073a.518.518 0 1 0 .518.9l3.59-2.073a.518.518 0 0 0 .19-.703zm.329 1.605-3.59 2.073a.518.518 0 1 0 .518.9l3.59-2.073a.518.518 0 1 0-.518-.9zM38.464 28.5a.518.518 0 0 0-.518.518v.518a.518.518 0 0 0 1.036 0v-.518a.518.518 0 0 0-.518-.518zm0 2.073a.518.518 0 0 0-.518.518v.518a.518.518 0 0 0 1.036 0v-.518a.518.518 0 0 0-.518-.514zm6.219 1.036h-3.628a.518.518 0 0 0 0 1.036h3.628a.518.518 0 1 0 0-1.036zm-3.628-1.036h3.628a.518.518 0 1 0 0-1.036h-3.628a.518.518 0 0 0 0 1.036z" transform="translate(-17.709 -6.536)" style="fill:#616161"/>
        </g>
    </g>
</svg>
