<svg data-name="svgexport-17 (45)" xmlns="http://www.w3.org/2000/svg" width="22.641" height="16.98" viewBox="0 0 22.641 16.98">
    <path data-name="Path 6480" d="M20.046 0H2.594A2.6 2.6 0 0 0 0 2.594v11.792a2.6 2.6 0 0 0 2.594 2.594h17.452a2.6 2.6 0 0 0 2.594-2.594V2.594A2.6 2.6 0 0 0 20.046 0zM7.075 3.773a2.358 2.358 0 1 1-2.358 2.359 2.362 2.362 0 0 1 2.358-2.359zM11.32 12.5a.708.708 0 0 1-.708.708H3.538a.708.708 0 0 1-.708-.708v-.472a2.6 2.6 0 0 1 2.594-2.594h3.3a2.6 2.6 0 0 1 2.594 2.594zm7.783.708h-5.188a.708.708 0 1 1 0-1.415H19.1a.708.708 0 0 1 0 1.415zm0-3.774h-5.188a.708.708 0 1 1 0-1.415H19.1a.708.708 0 0 1 0 1.415zm0-3.773h-5.188a.708.708 0 1 1 0-1.415H19.1a.708.708 0 0 1 0 1.415zm0 0" style="fill:#007f81"/>
</svg>
