<svg xmlns="http://www.w3.org/2000/svg" width="19.18" height="27.424" viewBox="0 0 19.18 27.424">
    <g data-name="svgexport-6 - 2022-09-27T105242.962">
        <g data-name="9">
            <path data-name="Path 63" d="M8 16a1 1 0 1 1 1-1 1 1 0 0 1-1 1z" transform="translate(1.67 11.424)" style="fill:#616161"/>
            <path data-name="Path 64" d="M17.4 24.407H6.643a4.137 4.137 0 0 1-3.27-1.655 5.014 5.014 0 0 1-.959-3.8L4.126 7.276a8.183 8.183 0 0 1 7.825-7.293 8.183 8.183 0 0 1 7.825 7.293l1.712 11.67a5.074 5.074 0 0 1-.959 3.753 4.161 4.161 0 0 1-3.129 1.708zM12.019 1.891A6.387 6.387 0 0 0 5.89 7.52L4.178 19.191a3.008 3.008 0 0 0 .582 2.289 2.452 2.452 0 0 0 1.883 1.05H17.4a2.434 2.434 0 0 0 1.952-.994 3.008 3.008 0 0 0 .582-2.289L18.149 7.52a6.387 6.387 0 0 0-6.13-5.629z" transform="translate(-2.356 .017)" style="fill:#616161"/>
        </g>
    </g>
</svg>
