<svg xmlns="http://www.w3.org/2000/svg" width="26.09" height="26.089" viewBox="0 0 26.09 26.089">
    <g data-name="Group 53">
        <path data-name="Path 6745" d="M8.5 0A8.5 8.5 0 1 1 0 8.5 8.5 8.5 0 0 1 8.5 0z" transform="translate(4.855 4.854)" style="fill:#a93800"/>
        <g data-name="svgexport-6 - 2022-09-27T095522.618">
            <g data-name="Layer 2">
                <path data-name="Path 58" d="m26.3 11.781-1.324-1.321a1.755 1.755 0 0 1-.51-1.229V7.68a3.562 3.562 0 0 0-3.557-3.557h-1.547a1.754 1.754 0 0 1-1.228-.507l-1.323-1.324a3.561 3.561 0 0 0-5.029 0L10.46 3.616a1.755 1.755 0 0 1-1.229.51h-1.55A3.562 3.562 0 0 0 4.124 7.68v1.55a1.754 1.754 0 0 1-.507 1.228l-1.326 1.323a3.561 3.561 0 0 0 0 5.029l1.325 1.322a1.755 1.755 0 0 1 .51 1.229v1.55a3.562 3.562 0 0 0 3.557 3.557h1.548a1.754 1.754 0 0 1 1.228.509l1.323 1.323a3.56 3.56 0 0 0 5.029 0l1.322-1.323a1.755 1.755 0 0 1 1.229-.51h1.55a3.562 3.562 0 0 0 3.557-3.557v-1.55a1.75 1.75 0 0 1 .51-1.228l1.321-1.321a3.561 3.561 0 0 0 0-5.029zm-15.038-2.34a1.82 1.82 0 1 1-1.82 1.82 1.82 1.82 0 0 1 1.82-1.82zm.243 8.93a.91.91 0 0 1-1.286-1.286l6.869-6.864a.91.91 0 0 1 1.286 1.286zm5.825.779a1.82 1.82 0 1 1 1.82-1.82 1.82 1.82 0 0 1-1.82 1.82z" transform="translate(-1.251 -1.252)" style="fill:#fff"/>
            </g>
        </g>
    </g>
</svg>
