<svg data-name="svgexport-17 - 2023-12-13T161041.877" xmlns="http://www.w3.org/2000/svg" width="17.052" height="19.488" viewBox="0 0 17.052 19.488">
    <path data-name="Path 6964" d="M40.526 3.02c1.249 0 2.322 1.386 2.792 2.461h-5.584c.466-1.075 1.543-2.461 2.792-2.461zM32 9.135a3.653 3.653 0 0 1 1.869-3.189 6.7 6.7 0 0 1 13.314 0 3.653 3.653 0 0 1 1.869 3.189v6.7a3.654 3.654 0 0 1-3.652 3.653h-9.746A3.654 3.654 0 0 1 32 15.834zm10.353 2.436a1.826 1.826 0 0 1-.913 1.583v.7a.913.913 0 1 1-1.827 0v-.7a1.827 1.827 0 1 1 2.74-1.583z" transform="translate(-32)" style="fill:#007f81;fill-rule:evenodd"/>
</svg>
