<svg data-name="svgexport-17 (65)" xmlns="http://www.w3.org/2000/svg" width="84.634" height="21.629" viewBox="0 0 84.634 21.629">
    <path data-name="Path 6538" d="M354.32 221.2h-4.568a.893.893 0 0 0-.672.537l-1.88 11.822a.356.356 0 0 0 .4.4h2.418a.356.356 0 0 0 .4-.4l.537-3.359a.615.615 0 0 1 .672-.537h1.478q4.635 0 5.239-4.433a3.521 3.521 0 0 0-.537-2.956 5.418 5.418 0 0 0-3.493-1.075m.537 4.433c-.269 1.612-1.478 1.612-2.687 1.612h-.806l.537-3.09c0-.134.134-.269.4-.269h.269c.806 0 1.612 0 2.015.537.269.134.269.537.269 1.209" transform="translate(-288.896 -215.558)" style="fill:#139ad6"/>
    <path data-name="Path 6539" d="M158.32 221.2h-4.568a.893.893 0 0 0-.672.537l-1.88 11.822a.356.356 0 0 0 .4.4h2.149a.893.893 0 0 0 .672-.537l.537-3.224a.615.615 0 0 1 .672-.537h1.478q4.635 0 5.239-4.433a3.521 3.521 0 0 0-.537-2.956 5.163 5.163 0 0 0-3.493-1.075m.537 4.433c-.269 1.612-1.478 1.612-2.687 1.612h-.667l.537-3.09c0-.134.134-.269.4-.269h.269c.806 0 1.612 0 2.015.537a1.439 1.439 0 0 1 .134 1.209m13.3-.134h-2.149c-.134 0-.4.134-.4.269l-.134.672-.134-.269a3.16 3.16 0 0 0-2.552-.94 5.162 5.162 0 0 0-4.971 4.433 4 4 0 0 0 .806 3.359 3.385 3.385 0 0 0 2.821 1.075 4.294 4.294 0 0 0 3.09-1.209l-.134.672a.356.356 0 0 0 .4.4h2.015a.893.893 0 0 0 .672-.537l1.209-7.523c-.134-.134-.4-.4-.537-.4m-3.09 4.3a2.6 2.6 0 0 1-2.552 2.149 2.148 2.148 0 0 1-1.478-.537 2.865 2.865 0 0 1-.4-1.612 2.4 2.4 0 0 1 3.9-1.612 2.345 2.345 0 0 1 .537 1.612" transform="translate(-125.81 -215.558)" style="fill:#263b80"/>
    <path data-name="Path 6540" d="M419.527 245.469h-2.149c-.134 0-.4.134-.4.269l-.134.672-.134-.269a3.16 3.16 0 0 0-2.552-.94 5.162 5.162 0 0 0-4.971 4.433 4 4 0 0 0 .806 3.359 3.385 3.385 0 0 0 2.821 1.075 4.294 4.294 0 0 0 3.09-1.209l-.134.672a.356.356 0 0 0 .4.4h2.015a.893.893 0 0 0 .672-.537l1.209-7.523c-.134-.134-.269-.4-.537-.4m-3.09 4.3a2.6 2.6 0 0 1-2.552 2.149 2.148 2.148 0 0 1-1.478-.537 2.865 2.865 0 0 1-.4-1.612 2.4 2.4 0 0 1 3.9-1.612 1.542 1.542 0 0 1 .537 1.612" transform="translate(-340.401 -235.527)" style="fill:#139ad6"/>
    <path data-name="Path 6541" d="M294.344 246.8h-2.284a.7.7 0 0 0-.537.269l-2.955 4.568-1.343-4.3a.621.621 0 0 0-.672-.4H284.4c-.269 0-.4.269-.4.537l2.418 7.12-2.284 3.224c-.134.269 0 .672.269.672h2.149a.7.7 0 0 0 .537-.269l7.389-10.613c.4-.4.134-.806-.134-.806" transform="translate(-236.309 -236.859)" style="fill:#263b80"/>
    <path data-name="Path 6542" d="M477.081 222.008 475.2 234.1a.356.356 0 0 0 .4.4h1.881a.893.893 0 0 0 .672-.537l1.881-11.822a.356.356 0 0 0-.4-.4h-2.149c-.134-.134-.269 0-.4.269" transform="translate(-395.402 -215.962)" style="fill:#139ad6"/>
    <path data-name="Path 6543" d="M15.449 189.212c-.94-1.075-2.687-1.612-5.1-1.612H3.627a1.152 1.152 0 0 0-.94.806L0 206a.615.615 0 0 0 .537.672H4.7l1.075-6.583v.269a1.152 1.152 0 0 1 .94-.806h2.017c3.9 0 6.851-1.612 7.792-6.045v-.4a4.692 4.692 0 0 0-1.075-3.9" transform="translate(0 -187.6)" style="fill:#263b80"/>
    <path data-name="Path 6544" d="M37.691 220.4v.4c-.94 4.568-3.9 6.045-7.792 6.045h-2.015a1.152 1.152 0 0 0-.94.806l-1.344 8.198a.492.492 0 0 0 .537.537h3.493a.752.752 0 0 0 .806-.672v-.134l.672-4.165v-.269a.752.752 0 0 1 .806-.672h.537c3.359 0 6.045-1.343 6.717-5.374a4.939 4.939 0 0 0-.672-4.03 1.376 1.376 0 0 0-.806-.672" transform="translate(-21.301 -214.892)" style="fill:#139ad6"/>
    <path data-name="Path 6545" d="M44.072 216c-.134 0-.269-.134-.4-.134a.494.494 0 0 1-.4-.134 7.1 7.1 0 0 0-1.746-.134h-5.245a.493.493 0 0 0-.4.134.739.739 0 0 0-.4.672l-1.081 6.988v.269a1.152 1.152 0 0 1 .94-.806h2.015c3.9 0 6.851-1.612 7.792-6.045a.494.494 0 0 1 .134-.4c-.269-.134-.4-.269-.672-.269-.4-.134-.4-.134-.537-.134" transform="translate(-28.623 -210.898)" style="fill:#232c65"/>
</svg>
