<svg xmlns="http://www.w3.org/2000/svg" width="21.204" height="21.248" viewBox="0 0 21.204 21.248">
    <g data-name="svgexport-17 (47)">
        <path data-name="Path 6482" d="m21.187 15.594-2.965-2.965a1.972 1.972 0 0 0-3.283.741 2.018 2.018 0 0 1-2.33 1.271A9.144 9.144 0 0 1 7.1 9.134 1.919 1.919 0 0 1 8.373 6.8a1.972 1.972 0 0 0 .741-3.283L6.149.556a2.115 2.115 0 0 0-2.859 0L1.277 2.568c-2.012 2.118.212 7.732 5.189 12.708s10.59 7.307 12.708 5.189l2.012-2.012a2.115 2.115 0 0 0 0-2.859z" transform="translate(-.539)" style="fill:#007f81"/>
    </g>
</svg>
