<svg xmlns="http://www.w3.org/2000/svg" width="22.294" height="22.294" viewBox="0 0 22.294 22.294">
    <g data-name="svgexport-17 - 2024-01-28T134756.782">
        <path data-name="Path 16059" d="M21 0a1.306 1.306 0 0 0-.382.058l-4.336 1.333-.5-.5a1.785 1.785 0 0 0-1.271-.527h-.842a.36.36 0 0 0-.293.568l1.8 2.517a.36.36 0 0 0 .371.142l1.969-.438-.244 1.466A.36.36 0 0 0 17.78 5l.949-.475a1.8 1.8 0 0 0 .865-.94l.393-.982 2.024-.45a.36.36 0 0 0 .282-.351V1.3A1.3 1.3 0 0 0 21 0zm-2.07 3.314a1.075 1.075 0 0 1-.519.564l-.318.159.176-1.056.871-.193zm2.648-1.8-5.962 1.319-1.253-1.754h.143a1.072 1.072 0 0 1 .763.316l.657.658a.361.361 0 0 0 .36.09l4.539-1.4a.589.589 0 0 1 .749.552zm.559 9.7-.782-.521a14.339 14.339 0 0 0-7.982-2.423h-.138a14.322 14.322 0 0 0-6.761 1.7v-1.7h.36a2.517 2.517 0 0 0 0-5.034H5.753V2.157a.36.36 0 0 0-.36-.36h-.36V0h-.718v1.8h-.36a.36.36 0 0 0-.36.36v1.076H2.517a2.517 2.517 0 1 0 0 5.034h.36v13.3H0v.719h22.294v-.719h-1.079v-6.827h.719a.36.36 0 0 0 .36-.36v-2.876a.36.36 0 0 0-.16-.3zm-8.764-2.225a13.622 13.622 0 0 1 7.58 2.295l.622.415v.886H5.034V11.7l.622-.415a13.622 13.622 0 0 1 7.58-2.295zM2.877 6.113h1.438v1.438H2.877zm0-2.157h1.438v1.438H2.877zm3.6 1.438H5.034V3.955h1.438zm-1.438.719h1.433v1.438H5.034zm2.157 1.4v-1.4h1.4a1.8 1.8 0 0 1-1.404 1.402zm1.4-2.121h-1.4v-1.4a1.8 1.8 0 0 1 1.398 1.402zM4.315 2.517h.719v.719h-.719zM2.157 3.992v1.4h-1.4a1.8 1.8 0 0 1 1.4-1.4zm-1.4 2.121h1.4v1.4a1.8 1.8 0 0 1-1.4-1.4zM3.6 8.27h2.153v2.11c-.166.1-.334.2-.5.305l-.782.521a.36.36 0 0 0-.16.3v2.877a.36.36 0 0 0 .36.36h.719v6.832H3.6zm2.517 9.709h1.434v3.6H6.113zm2.157 0h1.438v.721h-.723a.36.36 0 0 0-.36.36v2.517H8.27zm6.472.719v-.719h1.438v.721zm-.719 0h-1.442v-.719h1.438zm-2.157 0h-1.442v-.719h1.438zm-2.517.719h1.438v2.157H9.349zm2.157 0h1.438v2.157h-1.441zm2.157 0H15.1v2.157h-1.436zm2.157 0h1.436v2.157h-1.438zm1.8-.719H16.9v-.719h1.438v3.6h-.36v-2.521a.36.36 0 0 0-.359-.358zM16.9 17.26v-2.517h1.438v2.517zm-.719 0h-1.438v-2.517h1.438zm-2.157 0h-1.439v-2.517h1.438zm-2.157 0h-1.439v-2.517h1.438zm-2.157 0H8.27v-2.517h1.438zm-2.157 0h-1.44v-2.517h1.438zm11.507 4.315v-3.6h1.44v3.6zm1.44-4.315h-1.442v-2.517H20.5zm1.079-3.236H5.034V13.3h16.541z"/>
        <path data-name="Path 16060" d="m12.842 5.41 3.6-1.077.206.689-3.6 1.077zm-2.517-.72 3.6-1.077.206.689-3.6 1.077z"/>
    </g>
</svg>
