<svg xmlns="http://www.w3.org/2000/svg" width="16.857" height="18.301" viewBox="0 0 16.857 18.301">
    <g data-name="svgexport-17 (63)">
        <path data-name="Layer 2" d="M17.752 3.81a15.018 15.018 0 0 1-3.4-.769 14.964 14.964 0 0 1-2.887-1.383 1.518 1.518 0 0 0-1.575 0A14.979 14.979 0 0 1 7 3.042a15.021 15.021 0 0 1-3.4.769 1.51 1.51 0 0 0-1.357 1.5V9.8a9.3 9.3 0 0 0 4.781 8.124l2.913 1.619a1.5 1.5 0 0 0 1.47 0l2.913-1.619A9.3 9.3 0 0 0 19.107 9.8V5.314a1.51 1.51 0 0 0-1.356-1.5zM14.118 9l-3.242 3.458a.864.864 0 0 1-1.2.054l-1.949-1.73a.864.864 0 1 1 1.148-1.291l1.317 1.17 2.666-2.844A.864.864 0 1 1 14.119 9z" style="fill:#007f81" transform="translate(-2.25 -1.438)"/>
    </g>
</svg>
