<svg data-name="svgexport-6 - 2022-09-27T101404.241" xmlns="http://www.w3.org/2000/svg" width="12.902" height="12.364" viewBox="0 0 12.902 12.364">
    <path data-name="Path 59" d="M12.869 5.164a.684.684 0 0 0-.59-.472l-3.725-.338L7.082.907a.686.686 0 0 0-1.261 0L4.348 4.354l-3.724.338a.687.687 0 0 0-.389 1.2l2.814 2.469-.83 3.656a.685.685 0 0 0 1.02.741l3.212-1.92 3.211 1.92a.686.686 0 0 0 1.02-.741l-.83-3.656 2.815-2.468a.686.686 0 0 0 .2-.729zm0 0" transform="translate(0 -.491)" style="fill:#ffc107"/>
</svg>
