<svg xmlns="http://www.w3.org/2000/svg" width="23.491" height="21.244" viewBox="0 0 23.491 21.244">
    <g data-name="svgexport-17 (86)">
        <path data-name="Path 6684" d="M141.49 38.829v-1.263a2.138 2.138 0 0 0-2.136-2.136h-8.181a.345.345 0 0 0 0 .69h8.181a1.448 1.448 0 0 1 1.446 1.446v1.263a1.687 1.687 0 0 0-1.339 1.648v1.281h-11.016v-1.28a1.687 1.687 0 0 0-1.339-1.648v-1.264a1.448 1.448 0 0 1 1.446-1.446h1.242a.345.345 0 1 0 0-.69h-1.242a2.138 2.138 0 0 0-2.136 2.136v1.263a1.687 1.687 0 0 0-1.339 1.648v4.911a.345.345 0 0 0 .345.345h10.634a.345.345 0 1 0 0-.69h-7.611v-2.6h11.016v2.6h-2.026a.345.345 0 1 0 0 .69h5.049a.345.345 0 0 0 .345-.345v-4.91a1.687 1.687 0 0 0-1.339-1.649zm-15.724 1.648a.994.994 0 0 1 1.989 0v4.566h-1.989zm16.374 4.566h-1.989v-4.565a.994.994 0 0 1 1.989 0v4.566zM128.124 32.97a.348.348 0 0 0 .343.311h10.973a.349.349 0 0 0 .345-.345v-8.1a.349.349 0 0 0-.345-.345h-2a.345.345 0 1 0 0 .69h1.172l-.638.638h-8.032l-.638-.638h6.757a.345.345 0 0 0 0-.69h-7.59a.349.349 0 0 0-.345.345v8.1a.078.078 0 0 0-.002.034zm1.175-.378.638-.638h8.032l.638.638zm8.468-1.328h-3.133l-.575-.638 1.864-2.07a.283.283 0 0 1 .418 0l1.425 1.568zm-4.061 0h-3.567v-.251l1.509-1.676a.219.219 0 0 1 .323 0zm5.388-5.6V32.1l-.638-.638V26.3zm-1.327 3.436-.914-1.005a.98.98 0 0 0-1.442 0L133.6 30.11l-1.112-1.235a.907.907 0 0 0-1.348 0l-1 1.107v-3.476h7.628zm-8.317-2.8v5.161l-.638.638v-6.433z" transform="translate(-119.338 -24.489)" style="fill:#656565"/>
        <path data-name="Path 6685" d="M3.886 72.938h-.338V61.005h.886v3.9a.345.345 0 1 0 .69 0v-3.9h.938a.348.348 0 0 0 .336-.422l-1.21-5.288a.345.345 0 0 0-.336-.268h-3.3a.345.345 0 0 0-.336.268L.009 60.584a.348.348 0 0 0 .336.422h2.513v11.932H2.52a1.537 1.537 0 0 0-1.535 1.535v.052a.345.345 0 0 0 .345.345h3.747a.345.345 0 0 0 .345-.345v-.052a1.537 1.537 0 0 0-1.535-1.535zM1.829 55.717h2.748l1.051 4.6H.777zm-.1 18.464a.847.847 0 0 1 .794-.553h1.363a.847.847 0 0 1 .794.553zm12.529-16.214a.974.974 0 1 0-.974-.974.975.975 0 0 0 .974.974zm0-1.258a.284.284 0 1 1-.284.284.284.284 0 0 1 .284-.284z" transform="translate(0 -53.626)" style="fill:#656565"/>
    </g>
</svg>
