<svg xmlns="http://www.w3.org/2000/svg" width="34" height="34" viewBox="0 0 34 34">
    <g data-name="Group 69400">
        <g data-name="Rectangle 251" style="fill:#fcfcfc;stroke:#f1f1f1;stroke-width:.7px">
            <rect width="34" height="34" rx="10" style="stroke:none"/>
            <rect x=".35" y=".35" width="33.3" height="33.3" rx="9.65" style="fill:none"/>
        </g>
        <g data-name="Group 3324">
            <g data-name="svgexport-17 (15)">
                <path data-name="Path 6415" d="M5.963.751v12.568l2.8-2.355a.911.911 0 0 1 .641-.222.964.964 0 0 1 .566.222.7.7 0 0 1 .265.475.64.64 0 0 1-.263.539l-2.557 2.145-1.7 1.433a.876.876 0 0 1-.281.157 1 1 0 0 1-.639 0 .876.876 0 0 1-.281-.157l-4.257-3.58a.763.763 0 0 1-.111-.111.689.689 0 0 1-.081-.126.635.635 0 0 1-.049-.139.622.622 0 0 1 .023-.356.676.676 0 0 1 .108-.189.781.781 0 0 1 .168-.155.9.9 0 0 1 .219-.108.986.986 0 0 1 .247-.049 1.009 1.009 0 0 1 .248.014.957.957 0 0 1 .233.073.85.85 0 0 1 .2.13l2.8 2.361V.713a.7.7 0 0 1 .3-.547A.988.988 0 0 1 5.156 0a.955.955 0 0 1 .574.2.636.636 0 0 1 .233.549z" style="fill:#007f81" transform="translate(16.987 9.001)"/>
            </g>
            <g data-name="svgexport-17 (15)">
                <path data-name="Path 6415" d="M4.166 15.014V2.445L1.437 4.8a.876.876 0 0 1-.625.222A.929.929 0 0 1 .26 4.8.705.705 0 0 1 0 4.325a.646.646 0 0 1 .257-.539l2.49-2.144L4.411.209a.85.85 0 0 1 .274-.157.958.958 0 0 1 .624 0 .85.85 0 0 1 .274.157l4.153 3.58a.754.754 0 0 1 .108.111.692.692 0 0 1 .079.126.646.646 0 0 1 .048.137.637.637 0 0 1-.022.356.68.68 0 0 1-.106.189.77.77 0 0 1-.164.154.868.868 0 0 1-.214.108.942.942 0 0 1-.242.049.962.962 0 0 1-.243-.014.918.918 0 0 1-.228-.073.828.828 0 0 1-.2-.13l-2.724-2.36v12.61a.7.7 0 0 1-.293.547.947.947 0 0 1-.582.165.919.919 0 0 1-.56-.2.643.643 0 0 1-.228-.549z" style="fill:#007f81" transform="translate(7 9.001)"/>
            </g>
        </g>
    </g>
</svg>
