<svg xmlns="http://www.w3.org/2000/svg" width="19.335" height="27.244" viewBox="0 0 19.335 27.244">
    <g data-name="svgexport-17 (38)">
        <path data-name="Path 6466" d="M14.644 24.711h10.933a2.3 2.3 0 1 1 0 4.6H14.643a2.3 2.3 0 0 1 0-4.6zm1.224 5.089-1.098 4.6a1.581 1.581 0 0 0 .316 1.4 1.622 1.622 0 0 0 1.3.623h7.443a1.622 1.622 0 0 0 1.3-.623 1.581 1.581 0 0 0 .315-1.4l-1.1-4.61z" transform="translate(-8.541 -9.181)" style="fill:#007f81;fill-rule:evenodd"/>
        <path data-name="Path 6467" d="M12.671 8.643h8a.936.936 0 0 1 .934.934v.934h-8.432l1.217 4.533h-2A2.789 2.789 0 0 0 10 16.407c-.27-.992-.527-1.921-.8-2.952L7.094 5.594 6.8 4.506l-.43-1.611A2.3 2.3 0 1 1 10.812 1.7l.078.29 1.043 3.892.2.762z" transform="translate(-6.292 -.001)" style="fill:#007f81;fill-rule:evenodd"/>
        <path data-name="Path 6468" d="M15.653 7.783c.625-.173 1.053-.617.952-.993l-.878-3.276c-.1-.376-.693-.547-1.321-.384z" transform="translate(-9.307 -1.141)" style="fill:#007f81;fill-rule:evenodd"/>
    </g>
</svg>
