<svg data-name="svgexport-21 (10)" xmlns="http://www.w3.org/2000/svg" width="20.332" height="22.179" viewBox="0 0 20.332 22.179">
    <path data-name="Path 6700" d="M320.675 19a3 3 0 1 1-3-3 3 3 0 0 1 3 3zm0 0" transform="translate(-301.037 -15.307)" style="fill:#007f81"/>
    <path data-name="Path 6701" d="M302.365 7.393a3.7 3.7 0 1 1 3.7-3.7 3.7 3.7 0 0 1-3.7 3.7zm0-6.007a2.31 2.31 0 1 0 2.31 2.31 2.313 2.313 0 0 0-2.31-2.31zm3 17.1a3 3 0 1 1-3-3 3 3 0 0 1 3.003 2.997zm0 0" transform="translate(-285.729)" style="fill:#007f81"/>
    <path data-name="Path 6702" d="M31.942 200.761a3.7 3.7 0 1 1 3.7-3.7 3.7 3.7 0 0 1-3.7 3.7zm0-6.007a2.31 2.31 0 1 0 2.31 2.31 2.313 2.313 0 0 0-2.31-2.31zm-9.935-5.083a3 3 0 1 1-3-3 3 3 0 0 1 3 3zm0 0" transform="translate(-15.307 -178.582)" style="fill:#007f81"/>
    <path data-name="Path 6703" d="M3.7 178.061a3.7 3.7 0 1 1 3.7-3.7 3.7 3.7 0 0 1-3.7 3.7zm0-6.007a2.31 2.31 0 1 0 2.31 2.31 2.313 2.313 0 0 0-2.31-2.31zm0 0" transform="translate(0 -163.275)" style="fill:#007f81"/>
    <path data-name="Path 6704" d="M115.273 96.953a.924.924 0 0 1-.458-1.727l8.575-4.889a.924.924 0 1 1 .915 1.606l-8.575 4.889a.918.918 0 0 1-.456.121zm8.574 7.624a.919.919 0 0 1-.457-.121l-8.575-4.889a.924.924 0 0 1 .915-1.606l8.575 4.889a.924.924 0 0 1-.458 1.727zm0 0" transform="translate(-109.395 -86.307)" style="fill:#007f81"/>
</svg>
