<svg data-name="svgexport-17 (62)" xmlns="http://www.w3.org/2000/svg" width="17.473" height="17.473" viewBox="0 0 17.473 17.473">
    <path data-name="Path 6535" d="M9.561 13.994a4.434 4.434 0 0 1 7.094-3.548c.042-.618.069-1.31.07-2.084a26.667 26.667 0 0 0-.34-4.422 4.675 4.675 0 0 0-3.6-3.6A26.623 26.623 0 0 0 8.362 0 26.671 26.671 0 0 0 3.94.34a4.675 4.675 0 0 0-3.6 3.6A26.7 26.7 0 0 0 0 8.362a26.709 26.709 0 0 0 .34 4.422 4.675 4.675 0 0 0 3.6 3.6 26.706 26.706 0 0 0 4.422.34c.774 0 1.466-.027 2.084-.07a4.4 4.4 0 0 1-.886-2.66zM4.23 4.041h8.264a.968.968 0 1 1 0 1.936H4.23a.968.968 0 0 1 0-1.936zm0 5.977a.968.968 0 0 1 0-1.936h4.851a.968.968 0 0 1 0 1.936z" style="fill:#007f81"/>
    <path data-name="Path 6536" d="M311.638 308.16a3.478 3.478 0 1 0 3.478 3.478 3.478 3.478 0 0 0-3.478-3.478zm.648 5.2a.648.648 0 0 1-1.3 0v-1.711a.648.648 0 1 1 1.3 0zm-.027-3.1a.366.366 0 0 1-.282.282 2.116 2.116 0 0 1-.346.027 2.078 2.078 0 0 1-.346-.027.366.366 0 0 1-.282-.282 2.11 2.11 0 0 1-.027-.346 2.072 2.072 0 0 1 .027-.346.366.366 0 0 1 .282-.282 2.1 2.1 0 0 1 .346-.027 2.072 2.072 0 0 1 .346.027.366.366 0 0 1 .282.282 2.1 2.1 0 0 1 .027.346 2.073 2.073 0 0 1-.026.351z" transform="translate(-297.644 -297.644)" style="fill:#007f81"/>
</svg>
