<svg xmlns="http://www.w3.org/2000/svg" width="20.196" height="20.196" viewBox="0 0 20.196 20.196">
    <g data-name="svgexport-17 (46)">
        <path data-name="Path 6481" d="m3.732 12.474 8.741-8.742A2.5 2.5 0 0 1 14.24 3h5.59a3.366 3.366 0 0 1 3.37 3.366v5.61a2.5 2.5 0 0 1-.732 1.746l-8.742 8.742a2.5 2.5 0 0 1-3.532 0l-6.462-6.458a2.5 2.5 0 0 1 0-3.533zm14.976-3.3a1.683 1.683 0 1 1-1.683-1.683 1.683 1.683 0 0 1 1.682 1.68zm-8.182 4.256a1.122 1.122 0 1 0-1.587 1.587l2.244 2.244a1.122 1.122 0 1 0 1.587-1.587z" transform="translate(-3 -3)" style="fill:#007f81;fill-rule:evenodd"/>
    </g>
</svg>
