<svg xmlns="http://www.w3.org/2000/svg" width="23.022" height="19.374" viewBox="0 0 23.022 19.374">
    <g data-name="svgexport-17 (77)">
        <path data-name="Path 6670" d="M13.893 9.673a4.183 4.183 0 0 1 1.947 3.108 3.375 3.375 0 1 0-1.947-3.108zm-2.212 6.913A3.376 3.376 0 1 0 8.3 13.211a3.376 3.376 0 0 0 3.381 3.376zm1.432.23h-2.865a4.328 4.328 0 0 0-4.323 4.324v3.5l.009.055.241.076a19.679 19.679 0 0 0 5.878.948 12.068 12.068 0 0 0 5.133-.964l.226-.114h.024v-3.5a4.327 4.327 0 0 0-4.322-4.324zm5.587-3.485h-2.843a4.161 4.161 0 0 1-1.284 2.9 5.137 5.137 0 0 1 3.669 4.916v1.08a11.634 11.634 0 0 0 4.531-.952l.227-.116h.024v-3.5a4.328 4.328 0 0 0-4.324-4.328zM5.756 13.1a3.354 3.354 0 0 0 1.8-.521 4.179 4.179 0 0 1 1.567-2.664c0-.063.009-.126.009-.19A3.376 3.376 0 1 0 5.756 13.1zm3.033 3.13a4.164 4.164 0 0 1-1.283-2.882c-.105-.008-.21-.016-.317-.016H4.323A4.328 4.328 0 0 0 0 17.654v3.5l.009.054.241.076a20.27 20.27 0 0 0 4.869.915v-1.053a5.138 5.138 0 0 1 3.67-4.916z" style="fill:#007f81" transform="translate(0 -6.348)"/>
    </g>
</svg>
