<svg xmlns="http://www.w3.org/2000/svg" width="53.603" height="16.251" viewBox="0 0 53.603 16.251">
    <g data-name="svgexport-17 (48)">
        <path data-name="Path 6484" d="m184.8 195.715 2.723-15.315h4.254l-2.638 15.315z" transform="translate(-165.146 -179.889)" style="fill:#3c58bf"/>
        <path data-name="Path 6485" d="m184.8 195.715 3.488-15.315h3.488l-2.638 15.315z" transform="translate(-165.146 -179.889)" style="fill:#293688"/>
        <path data-name="Path 6486" d="M261.018 176.281a10.791 10.791 0 0 0-3.914-.681c-4.254 0-7.317 2.127-7.317 5.19 0 2.3 2.127 3.488 3.829 4.254s2.212 1.276 2.212 1.957c0 1.021-1.361 1.532-2.553 1.532a9.248 9.248 0 0 1-4.084-.851l-.6-.255-.6 3.488a13.8 13.8 0 0 0 4.85.851c4.509 0 7.487-2.127 7.487-5.36 0-1.787-1.106-3.148-3.659-4.254-1.531-.766-2.467-1.191-2.467-1.957 0-.681.766-1.361 2.467-1.361a7.8 7.8 0 0 1 3.233.6l.425.17z" transform="translate(-221.624 -175.6)" style="fill:#3c58bf"/>
        <path data-name="Path 6487" d="M261.018 176.281a10.791 10.791 0 0 0-3.914-.681c-4.254 0-6.551 2.127-6.551 5.19 0 2.3 1.361 3.488 3.063 4.254s2.212 1.276 2.212 1.957c0 1.021-1.361 1.532-2.553 1.532a9.248 9.248 0 0 1-4.084-.851l-.6-.255-.6 3.488a13.8 13.8 0 0 0 4.85.851c4.509 0 7.487-2.127 7.487-5.36 0-1.787-1.106-3.148-3.659-4.254-1.531-.766-2.467-1.191-2.467-1.957 0-.681.766-1.361 2.467-1.361a7.8 7.8 0 0 1 3.233.6l.425.17z" transform="translate(-221.624 -175.6)" style="fill:#293688"/>
        <path data-name="Path 6488" d="M366.993 180.4c-1.021 0-1.787.085-2.212 1.106l-6.381 14.209h4.595l.851-2.553h5.445l.51 2.553h4.084l-3.573-15.315zm-1.957 10.21c.255-.766 1.7-4.509 1.7-4.509s.34-.936.6-1.531l.255 1.446s.851 3.829 1.021 4.68h-3.574v-.085z" transform="translate(-320.282 -179.889)" style="fill:#3c58bf"/>
        <path data-name="Path 6489" d="M368.014 180.4c-1.021 0-1.787.085-2.212 1.106l-7.4 14.209h4.595l.851-2.553h5.445l.51 2.553h4.084l-3.575-15.315zm-2.978 10.21c.34-.851 1.7-4.509 1.7-4.509s.34-.936.6-1.531l.255 1.446s.851 3.829 1.021 4.68h-3.574v-.085z" transform="translate(-320.282 -179.889)" style="fill:#293688"/>
        <path data-name="Path 6490" d="m57.581 191.835-.425-2.212A12.334 12.334 0 0 0 51.2 182.9l3.829 13.613h4.595l6.891-15.313h-4.594z" transform="translate(-45.755 -180.604)" style="fill:#3c58bf"/>
        <path data-name="Path 6491" d="m57.581 191.835-.425-2.212A12.334 12.334 0 0 0 51.2 182.9l3.829 13.613h4.595l6.891-15.313h-3.744z" transform="translate(-45.755 -180.604)" style="fill:#293688"/>
        <path data-name="Path 6492" d="m0 180.4.766.17c5.445 1.276 9.189 4.509 10.636 8.338l-1.532-7.232c-.255-1.021-1.021-1.276-1.957-1.276z" transform="translate(0 -179.889)" style="fill:#ffbc00"/>
        <path data-name="Path 6493" d="M0 180.4c5.445 1.276 9.955 4.595 11.4 8.423l-1.446-6.041a2.077 2.077 0 0 0-2.042-1.617z" transform="translate(0 -179.889)" style="fill:#f7981d"/>
        <path data-name="Path 6494" d="M0 180.4c5.445 1.276 9.955 4.595 11.4 8.423l-1.021-3.318a3 3 0 0 0-1.787-2.467z" transform="translate(0 -179.889)" style="fill:#ed7c00"/>
        <path data-name="Path 6495" d="m62.55 204.908-2.893-2.893-1.357 3.234-.34-2.127A12.334 12.334 0 0 0 52 196.4l3.829 13.613h4.595zm7.913 5.105L66.8 206.27l-.681 3.744zm9.785-5.275c.34.34.51.6.425.936 0 1.021-1.361 1.532-2.553 1.532a9.248 9.248 0 0 1-4.084-.851l-.6-.255-.6 3.488a13.8 13.8 0 0 0 4.85.851c2.723 0 4.935-.766 6.211-2.127zm4.935 5.275h4l.851-2.553h5.445l.511 2.553h4.084l-1.448-6.213-5.105-4.935.255 1.361s.851 3.829 1.021 4.68h-3.573c.34-.851 1.7-4.509 1.7-4.509s.34-.936.6-1.532" transform="translate(-46.47 -194.188)" style="fill:#051244"/>
    </g>
</svg>
