<svg data-name="svgexport-17 - 2024-01-22T165300.590" xmlns="http://www.w3.org/2000/svg" width="18.995" height="16.96" viewBox="0 0 18.995 16.96">
    <path data-name="Path 16056" d="M21 17.568v1.7a1.7 1.7 0 0 1-1.7 1.7H4.714A2.716 2.716 0 0 1 2 18.247V6.714A2.716 2.716 0 0 1 4.714 4h12.55a1.018 1.018 0 1 1 0 2.035H4.714a.679.679 0 0 0 0 1.357H19.3a1.7 1.7 0 0 1 1.7 1.7v1.7h-3.4a3.392 3.392 0 1 0 0 6.784z" transform="translate(-2 -4)" style="fill:#007f81"/>
    <path data-name="Path 16057" d="M27.427 16v4.07h-3.392a2.035 2.035 0 0 1 0-4.07z" transform="translate(-8.432 -7.859)" style="fill:#007f81"/>
</svg>
